<svg xmlns="http://www.w3.org/2000/svg" width="31" height="31" viewBox="0 0 31 31" fill="none">
  <g clip-path="url(#clip0_9_368)">
    <path d="M0.0491028 15.7395C-0.0507393 15.498 0.00484085 15.2201 0.189873 15.0355L11.8149 3.41055C12.0714 3.16273 12.4803 3.16987 12.7281 3.42641C12.9698 3.67671 12.9698 4.07348 12.7281 4.32372L2.20487 14.8469H30.3541C30.7108 14.847 31 15.1362 31 15.4929C31 15.8495 30.7108 16.1387 30.3541 16.1387H2.20487L12.7268 26.6606C12.9833 26.9084 12.9905 27.3172 12.7426 27.5738C12.4948 27.8304 12.086 27.8375 11.8294 27.5897C11.824 27.5845 11.8188 27.5792 11.8135 27.5738L0.188541 15.9488C0.128843 15.8888 0.0814342 15.8178 0.0491028 15.7395Z" fill="#2196F3"/>
    <path d="M12.2708 27.7635C12.6275 27.7642 12.9172 27.4755 12.9178 27.1188C12.9181 26.9469 12.8499 26.7819 12.7281 26.6604L1.55901 15.4927L12.7281 4.32497C12.9759 4.06844 12.9688 3.65956 12.7122 3.41175C12.4619 3.17004 12.0652 3.17004 11.8149 3.41175L0.189921 15.0367C-0.0621958 15.2889 -0.0621958 15.6977 0.189921 15.95L11.8149 27.575C11.9359 27.6957 12.0999 27.7635 12.2708 27.7635Z" fill="#222222"/>
    <path d="M0.645853 16.1386H30.3541C30.7108 16.1386 31 15.8495 31 15.4928C31 15.1361 30.7108 14.8469 30.3541 14.8469H0.645792C0.28911 14.8469 -5.91278e-05 15.1361 -5.91278e-05 15.4928C1.90735e-06 15.8495 0.289171 16.1386 0.645853 16.1386Z" fill="#222222"/>
  </g>
  <defs>
    <clipPath id="clip0_9_368">
      <rect width="31" height="31" fill="white" transform="matrix(-1 0 0 1 31 0)"/>
    </clipPath>
  </defs>
</svg>