<svg xmlns="http://www.w3.org/2000/svg" width="31" height="31" viewBox="0 0 31 31" fill="none">
  <g clip-path="url(#clip0_9_346)">
    <path d="M30.9509 15.7395C31.0507 15.498 30.9952 15.2201 30.8101 15.0355L19.1851 3.41055C18.9286 3.16273 18.5197 3.16987 18.2719 3.42641C18.0302 3.67671 18.0302 4.07348 18.2719 4.32372L28.7951 14.8469H0.645854C0.289172 14.847 0 15.1362 0 15.4929C0 15.8495 0.289172 16.1387 0.645854 16.1387H28.7951L18.2732 26.6606C18.0167 26.9084 18.0095 27.3172 18.2574 27.5738C18.5052 27.8304 18.914 27.8375 19.1706 27.5897C19.176 27.5845 19.1812 27.5792 19.1865 27.5738L30.8115 15.9488C30.8712 15.8888 30.9186 15.8178 30.9509 15.7395Z" fill="#2196F3"/>
    <path d="M18.7292 27.7635C18.3725 27.7642 18.0828 27.4755 18.0822 27.1188C18.0819 26.9469 18.1501 26.7819 18.2719 26.6604L29.441 15.4927L18.2719 4.32497C18.0241 4.06844 18.0312 3.65956 18.2878 3.41175C18.5381 3.17004 18.9348 3.17004 19.1851 3.41175L30.8101 15.0367C31.0622 15.2889 31.0622 15.6977 30.8101 15.95L19.1851 27.575C19.0641 27.6957 18.9001 27.7635 18.7292 27.7635Z" fill="#222222"/>
    <path d="M30.3541 16.1386H0.645854C0.289172 16.1386 0 15.8495 0 15.4928C0 15.1361 0.289172 14.8469 0.645854 14.8469H30.3542C30.7109 14.8469 31.0001 15.1361 31.0001 15.4928C31 15.8495 30.7108 16.1386 30.3541 16.1386Z" fill="#222222"/>
  </g>
  <defs>
    <clipPath id="clip0_9_346">
      <rect width="31" height="31" fill="white"/>
    </clipPath>
  </defs>
</svg>