<svg width="43" height="38" viewBox="0 0 43 38" fill="none" xmlns="http://www.w3.org/2000/svg">
<path d="M20.7211 21.8661C21.0911 21.0982 22.0611 20.7466 22.8911 21.0889C23.7211 21.4313 24.1011 22.3287 23.7311 23.0967C22.5111 25.6503 20.3811 26.6588 18.1711 26.5848C17.2411 26.5571 16.3011 26.3257 15.4411 25.9279C15.4111 25.9094 15.3711 25.9001 15.3411 25.8816C14.5411 25.5023 13.7911 24.9842 13.1611 24.3642C11.2511 22.486 10.2711 19.6271 11.6811 16.6478C11.8911 16.2037 12.1211 15.7781 12.3711 15.3802C13.9011 12.9191 16.1611 11.2537 18.6911 10.458C21.2411 9.65303 24.0511 9.74556 26.6811 10.8096C27.0611 10.9669 27.4611 11.1519 27.8511 11.3555H27.8611C27.8911 11.374 27.9211 11.3832 27.9511 11.4017C28.7511 11.8366 29.4811 12.3547 30.1411 12.9376C30.8111 13.5298 31.4111 14.1959 31.9211 14.9176C34.5211 18.563 35.0611 23.6333 32.9011 28.0097C29.4311 35.0414 23.5611 37.8634 17.7011 37.7061C15.2911 37.6414 12.9011 37.0677 10.7011 36.0777C8.51112 35.097 6.49112 33.6906 4.81112 31.9512C0.231122 27.2325 -1.82888 20.0712 2.01112 12.2899C6.17112 3.87032 13.7311 0.409948 21.2511 0.650509C24.2511 0.743032 27.2411 1.43696 29.9811 2.63051C32.7311 3.83331 35.2411 5.53574 37.3111 7.68228C42.7911 13.3632 45.1011 22.0234 40.1211 32.127C39.7411 32.8857 38.7711 33.228 37.9411 32.8764C37.1211 32.5248 36.7511 31.6273 37.1311 30.8594C41.4811 22.0419 39.5411 14.566 34.8511 9.70855C33.0811 7.87658 30.9311 6.41471 28.5811 5.38771C26.2311 4.3607 23.6911 3.76855 21.1511 3.69453C14.8711 3.50023 8.52112 6.42397 5.00112 13.5668C1.78112 20.0897 3.47112 26.0389 7.26112 29.9434C8.65112 31.3775 10.3211 32.5341 12.1411 33.3483C13.9411 34.1625 15.8811 34.6251 17.8011 34.6806C22.4211 34.8009 27.0911 32.5063 29.9211 26.7606C31.6011 23.3557 31.1911 19.4235 29.1811 16.6108C28.8011 16.0742 28.3611 15.5838 27.8611 15.1397C27.3911 14.7233 26.8611 14.344 26.2911 14.0386L26.2511 14.0201H26.2411L26.2211 14.0109C25.9511 13.8628 25.6611 13.7333 25.3611 13.6038C23.5011 12.8543 21.5211 12.7803 19.7411 13.3447C17.9411 13.9091 16.3211 15.1212 15.2111 16.9161C15.0211 17.2214 14.8411 17.5453 14.6911 17.8691C13.8911 19.5623 14.4511 21.1999 15.5511 22.2825C15.9311 22.6526 16.3611 22.9579 16.8211 23.1707L16.8911 23.1985C17.3511 23.402 17.8211 23.5315 18.2711 23.5408C19.2011 23.5685 20.1311 23.0874 20.7211 21.8661Z" fill="#D02C41"/>
<path d="M38.6211 35.3745C40.9352 35.3745 42.8111 33.6389 42.8111 31.4978C42.8111 29.3567 40.9352 27.6211 38.6211 27.6211C36.307 27.6211 34.4311 29.3567 34.4311 31.4978C34.4311 33.6389 36.307 35.3745 38.6211 35.3745Z" fill="#D02C41"/>
<path d="M38.6211 33.3483C39.7257 33.3483 40.6211 32.5198 40.6211 31.4978C40.6211 30.4758 39.7257 29.6473 38.6211 29.6473C37.5166 29.6473 36.6211 30.4758 36.6211 31.4978C36.6211 32.5198 37.5166 33.3483 38.6211 33.3483Z" fill="#FEFEFE"/>
<path d="M22.8611 23.402C24.4186 23.402 25.6811 22.2338 25.6811 20.7928C25.6811 19.3518 24.4186 18.1837 22.8611 18.1837C21.3037 18.1837 20.0411 19.3518 20.0411 20.7928C20.0411 22.2338 21.3037 23.402 22.8611 23.402Z" fill="#D02C41"/>
<path d="M22.8611 22.0419C23.6067 22.0419 24.2111 21.4827 24.2111 20.7928C24.2111 20.103 23.6067 19.5438 22.8611 19.5438C22.1155 19.5438 21.5111 20.103 21.5111 20.7928C21.5111 21.4827 22.1155 22.0419 22.8611 22.0419Z" fill="#FEFEFE"/>
</svg>
